<svg width="696" height="128" viewBox="0 0 696 128" fill="none" xmlns="http://www.w3.org/2000/svg">
<path d="M40.2941 60.5588C52.0588 43.1471 40.2941 19.3824 34.4118 13.5C34.4118 31.3706 23.9824 41.3882 16.7647 48.7941C9.55294 56.2059 5 67.8529 5 78.2059C5 87.5665 8.71848 96.5437 15.3374 103.163C21.9563 109.782 30.9335 113.5 40.2941 113.5C49.6547 113.5 58.6319 109.782 65.2508 103.163C71.8698 96.5437 75.5882 87.5665 75.5882 78.2059C75.5882 69.1941 69.3765 55.0294 63.8235 48.7941C53.3176 66.4412 47.4059 66.4412 40.2941 60.5588Z" stroke="#0969FF" stroke-width="10" stroke-linecap="round" stroke-linejoin="round"/>
<path d="M155.932 80.64H132.652L128.652 92H119.132L139.052 36.32H149.612L169.532 92H159.932L155.932 80.64ZM153.372 73.2L144.332 47.36L135.212 73.2H153.372ZM195.953 47.2C199.367 47.2 202.38 47.8933 204.993 49.28C207.66 50.6133 209.74 52.2933 211.233 54.32V47.92H220.433V92.72C220.433 96.7733 219.58 100.373 217.873 103.52C216.167 106.72 213.687 109.227 210.433 111.04C207.233 112.853 203.393 113.76 198.913 113.76C192.94 113.76 187.98 112.347 184.033 109.52C180.087 106.747 177.847 102.96 177.313 98.16H186.353C187.047 100.453 188.513 102.293 190.753 103.68C193.047 105.12 195.767 105.84 198.913 105.84C202.593 105.84 205.553 104.72 207.793 102.48C210.087 100.24 211.233 96.9867 211.233 92.72V85.36C209.687 87.44 207.58 89.2 204.913 90.64C202.3 92.0267 199.313 92.72 195.953 92.72C192.113 92.72 188.593 91.76 185.393 89.84C182.247 87.8667 179.74 85.1467 177.873 81.68C176.06 78.16 175.153 74.1867 175.153 69.76C175.153 65.3333 176.06 61.4133 177.873 58C179.74 54.5867 182.247 51.9467 185.393 50.08C188.593 48.16 192.113 47.2 195.953 47.2ZM211.233 69.92C211.233 66.88 210.593 64.24 209.313 62C208.087 59.76 206.46 58.0533 204.433 56.88C202.407 55.7067 200.22 55.12 197.873 55.12C195.527 55.12 193.34 55.7067 191.313 56.88C189.287 58 187.633 59.68 186.353 61.92C185.127 64.1067 184.513 66.72 184.513 69.76C184.513 72.8 185.127 75.4667 186.353 77.76C187.633 80.0533 189.287 81.8133 191.313 83.04C193.393 84.2133 195.58 84.8 197.873 84.8C200.22 84.8 202.407 84.2133 204.433 83.04C206.46 81.8667 208.087 80.16 209.313 77.92C210.593 75.6267 211.233 72.96 211.233 69.92ZM237.052 42.08C235.399 42.08 234.012 41.52 232.892 40.4C231.772 39.28 231.212 37.8933 231.212 36.24C231.212 34.5867 231.772 33.2 232.892 32.08C234.012 30.96 235.399 30.4 237.052 30.4C238.652 30.4 240.012 30.96 241.132 32.08C242.252 33.2 242.812 34.5867 242.812 36.24C242.812 37.8933 242.252 39.28 241.132 40.4C240.012 41.52 238.652 42.08 237.052 42.08ZM241.532 47.92V92H232.412V47.92H241.532ZM275.746 47.2C279.213 47.2 282.306 47.92 285.026 49.36C287.799 50.8 289.959 52.9333 291.506 55.76C293.053 58.5867 293.826 62 293.826 66V92H284.786V67.36C284.786 63.4133 283.799 60.4 281.826 58.32C279.853 56.1867 277.159 55.12 273.746 55.12C270.333 55.12 267.613 56.1867 265.586 58.32C263.613 60.4 262.626 63.4133 262.626 67.36V92H253.506V47.92H262.626V52.96C264.119 51.1467 266.013 49.7333 268.306 48.72C270.653 47.7067 273.133 47.2 275.746 47.2ZM355.12 92L342.32 69.76H335.36V92H326.24V36.4H345.44C349.707 36.4 353.307 37.1467 356.24 38.64C359.227 40.1333 361.44 42.1333 362.88 44.64C364.374 47.1467 365.12 49.9467 365.12 53.04C365.12 56.6667 364.054 59.9733 361.92 62.96C359.84 65.8933 356.614 67.8933 352.24 68.96L366 92H355.12ZM335.36 62.48H345.44C348.854 62.48 351.414 61.6267 353.12 59.92C354.88 58.2133 355.76 55.92 355.76 53.04C355.76 50.16 354.907 47.92 353.2 46.32C351.494 44.6667 348.907 43.84 345.44 43.84H335.36V62.48ZM417.187 68.88C417.187 70.5333 417.08 72.0267 416.867 73.36H383.187C383.454 76.88 384.76 79.7067 387.107 81.84C389.454 83.9733 392.334 85.04 395.747 85.04C400.654 85.04 404.12 82.9867 406.147 78.88H415.987C414.654 82.9333 412.227 86.2667 408.707 88.88C405.24 91.44 400.92 92.72 395.747 92.72C391.534 92.72 387.747 91.7867 384.387 89.92C381.08 88 378.467 85.3333 376.547 81.92C374.68 78.4533 373.747 74.4533 373.747 69.92C373.747 65.3867 374.654 61.4133 376.467 58C378.334 54.5333 380.92 51.8667 384.227 50C387.587 48.1333 391.427 47.2 395.747 47.2C399.907 47.2 403.614 48.1067 406.867 49.92C410.12 51.7333 412.654 54.2933 414.467 57.6C416.28 60.8533 417.187 64.6133 417.187 68.88ZM407.667 66C407.614 62.64 406.414 59.9467 404.067 57.92C401.72 55.8933 398.814 54.88 395.347 54.88C392.2 54.88 389.507 55.8933 387.267 57.92C385.027 59.8933 383.694 62.5867 383.267 66H407.667ZM423.122 69.76C423.122 65.3333 424.029 61.4133 425.842 58C427.709 54.5867 430.215 51.9467 433.362 50.08C436.562 48.16 440.109 47.2 444.002 47.2C447.415 47.2 450.429 47.8933 453.042 49.28C455.709 50.6667 457.762 52.3467 459.202 54.32V47.92H468.402V112.96H459.202V85.6C457.762 87.5733 455.682 89.2533 452.962 90.64C450.242 92.0267 447.149 92.72 443.682 92.72C439.895 92.72 436.429 91.76 433.282 89.84C430.189 87.8667 427.709 85.1467 425.842 81.68C424.029 78.16 423.122 74.1867 423.122 69.76ZM459.202 69.92C459.202 66.88 458.562 64.24 457.282 62C456.055 59.76 454.429 58.0533 452.402 56.88C450.375 55.7067 448.189 55.12 445.842 55.12C443.495 55.12 441.309 55.7067 439.282 56.88C437.255 58 435.602 59.68 434.322 61.92C433.095 64.1067 432.482 66.72 432.482 69.76C432.482 72.8 433.095 75.4667 434.322 77.76C435.602 80.0533 437.255 81.8133 439.282 83.04C441.362 84.2133 443.549 84.8 445.842 84.8C448.189 84.8 450.375 84.2133 452.402 83.04C454.429 81.8667 456.055 80.16 457.282 77.92C458.562 75.6267 459.202 72.96 459.202 69.92ZM520.301 47.92V92H511.181V86.8C509.741 88.6133 507.848 90.0533 505.501 91.12C503.208 92.1333 500.754 92.64 498.141 92.64C494.674 92.64 491.554 91.92 488.781 90.48C486.061 89.04 483.901 86.9067 482.301 84.08C480.754 81.2533 479.981 77.84 479.981 73.84V47.92H489.021V72.48C489.021 76.4267 490.008 79.4667 491.981 81.6C493.954 83.68 496.648 84.72 500.061 84.72C503.474 84.72 506.168 83.68 508.141 81.6C510.168 79.4667 511.181 76.4267 511.181 72.48V47.92H520.301ZM572.734 68.88C572.734 70.5333 572.627 72.0267 572.414 73.36H538.734C539.001 76.88 540.307 79.7067 542.654 81.84C545.001 83.9733 547.881 85.04 551.294 85.04C556.201 85.04 559.667 82.9867 561.694 78.88H571.534C570.201 82.9333 567.774 86.2667 564.254 88.88C560.787 91.44 556.467 92.72 551.294 92.72C547.081 92.72 543.294 91.7867 539.934 89.92C536.627 88 534.014 85.3333 532.094 81.92C530.227 78.4533 529.294 74.4533 529.294 69.92C529.294 65.3867 530.201 61.4133 532.014 58C533.881 54.5333 536.467 51.8667 539.774 50C543.134 48.1333 546.974 47.2 551.294 47.2C555.454 47.2 559.161 48.1067 562.414 49.92C565.667 51.7333 568.201 54.2933 570.014 57.6C571.827 60.8533 572.734 64.6133 572.734 68.88ZM563.214 66C563.161 62.64 561.961 59.9467 559.614 57.92C557.267 55.8933 554.361 54.88 550.894 54.88C547.747 54.88 545.054 55.8933 542.814 57.92C540.574 59.8933 539.241 62.5867 538.814 66H563.214ZM597.709 92.72C594.242 92.72 591.122 92.1067 588.349 90.88C585.629 89.6 583.469 87.8933 581.869 85.76C580.269 83.5733 579.416 81.1467 579.309 78.48H588.749C588.909 80.3467 589.789 81.92 591.389 83.2C593.042 84.4267 595.096 85.04 597.549 85.04C600.109 85.04 602.082 84.56 603.469 83.6C604.909 82.5867 605.629 81.3067 605.629 79.76C605.629 78.1067 604.829 76.88 603.229 76.08C601.682 75.28 599.202 74.4 595.789 73.44C592.482 72.5333 589.789 71.6533 587.709 70.8C585.629 69.9467 583.816 68.64 582.269 66.88C580.776 65.12 580.029 62.8 580.029 59.92C580.029 57.5733 580.722 55.44 582.109 53.52C583.496 51.5467 585.469 50 588.029 48.88C590.642 47.76 593.629 47.2 596.989 47.2C602.002 47.2 606.029 48.48 609.069 51.04C612.162 53.5467 613.816 56.9867 614.029 61.36H604.909C604.749 59.3867 603.949 57.8133 602.509 56.64C601.069 55.4667 599.122 54.88 596.669 54.88C594.269 54.88 592.429 55.3333 591.149 56.24C589.869 57.1467 589.229 58.3467 589.229 59.84C589.229 61.0133 589.656 62 590.509 62.8C591.362 63.6 592.402 64.24 593.629 64.72C594.856 65.1467 596.669 65.7067 599.069 66.4C602.269 67.2533 604.882 68.1333 606.909 69.04C608.989 69.8933 610.776 71.1733 612.269 72.88C613.762 74.5867 614.536 76.8533 614.589 79.68C614.589 82.1867 613.896 84.4267 612.509 86.4C611.122 88.3733 609.149 89.92 606.589 91.04C604.082 92.16 601.122 92.72 597.709 92.72ZM635.083 55.36V79.76C635.083 81.4133 635.457 82.6133 636.203 83.36C637.003 84.0533 638.337 84.4 640.203 84.4H645.803V92H638.603C634.497 92 631.35 91.04 629.163 89.12C626.977 87.2 625.883 84.08 625.883 79.76V55.36H620.683V47.92H625.883V36.96H635.083V47.92H645.803V55.36H635.083ZM670.209 92.72C666.742 92.72 663.622 92.1067 660.849 90.88C658.129 89.6 655.969 87.8933 654.369 85.76C652.769 83.5733 651.916 81.1467 651.809 78.48H661.249C661.409 80.3467 662.289 81.92 663.889 83.2C665.542 84.4267 667.596 85.04 670.049 85.04C672.609 85.04 674.582 84.56 675.969 83.6C677.409 82.5867 678.129 81.3067 678.129 79.76C678.129 78.1067 677.329 76.88 675.729 76.08C674.182 75.28 671.702 74.4 668.289 73.44C664.982 72.5333 662.289 71.6533 660.209 70.8C658.129 69.9467 656.316 68.64 654.769 66.88C653.276 65.12 652.529 62.8 652.529 59.92C652.529 57.5733 653.222 55.44 654.609 53.52C655.996 51.5467 657.969 50 660.529 48.88C663.142 47.76 666.129 47.2 669.489 47.2C674.502 47.2 678.529 48.48 681.569 51.04C684.662 53.5467 686.316 56.9867 686.529 61.36H677.409C677.249 59.3867 676.449 57.8133 675.009 56.64C673.569 55.4667 671.622 54.88 669.169 54.88C666.769 54.88 664.929 55.3333 663.649 56.24C662.369 57.1467 661.729 58.3467 661.729 59.84C661.729 61.0133 662.156 62 663.009 62.8C663.862 63.6 664.902 64.24 666.129 64.72C667.356 65.1467 669.169 65.7067 671.569 66.4C674.769 67.2533 677.382 68.1333 679.409 69.04C681.489 69.8933 683.276 71.1733 684.769 72.88C686.262 74.5867 687.036 76.8533 687.089 79.68C687.089 82.1867 686.396 84.4267 685.009 86.4C683.622 88.3733 681.649 89.92 679.089 91.04C676.582 92.16 673.622 92.72 670.209 92.72Z" fill="white"/>
</svg>
