<svg width="128" height="128" viewBox="0 0 128 128" fill="none" xmlns="http://www.w3.org/2000/svg">
<path d="M55.1111 63.7778H64C66.3575 63.7778 68.6184 62.8413 70.2854 61.1743C71.9524 59.5073 72.8889 57.2464 72.8889 54.8889C72.8889 52.5314 71.9524 50.2705 70.2854 48.6035C68.6184 46.9365 66.3575 46 64 46H55.1111V81.5556M86.2222 46H104M95.1111 46V81.5556M32.8889 46C35.2464 46 37.5073 46.9365 39.1743 48.6035C40.8413 50.2705 41.7778 52.5314 41.7778 54.8889V72.6667C41.7778 75.0241 40.8413 77.2851 39.1743 78.9521C37.5073 80.6191 35.2464 81.5556 32.8889 81.5556C30.5314 81.5556 28.2705 80.6191 26.6035 78.9521C24.9365 77.2851 24 75.0241 24 72.6667V54.8889C24 52.5314 24.9365 50.2705 26.6035 48.6035C28.2705 46.9365 30.5314 46 32.8889 46Z" stroke="white" stroke-opacity="0.5" stroke-width="8.88889" stroke-linecap="round" stroke-linejoin="round"/>
</svg>
