<svg width="128" height="128" viewBox="0 0 128 128" fill="none" xmlns="http://www.w3.org/2000/svg">
<path d="M24 63.7778H32.8889C35.2464 63.7778 37.5073 62.8413 39.1743 61.1743C40.8413 59.5073 41.7778 57.2464 41.7778 54.8889C41.7778 52.5314 40.8413 50.2705 39.1743 48.6035C37.5073 46.9365 35.2464 46 32.8889 46H24V81.5556M55.1111 81.5556V54.8889C55.1111 52.5314 56.0476 50.2705 57.7146 48.6035C59.3816 46.9365 61.6425 46 64 46C66.3575 46 68.6184 46.9365 70.2854 48.6035C71.9524 50.2705 72.8889 52.5314 72.8889 54.8889V81.5556M55.1111 68.2222H72.8889M86.2222 46H104M95.1111 46V81.5556" stroke="#D9D02F" stroke-width="8.88889" stroke-linecap="round" stroke-linejoin="round"/>
</svg>
