<svg width="128" height="128" viewBox="0 0 128 128" fill="none" xmlns="http://www.w3.org/2000/svg">
<path d="M24 63.7778H32.8889C35.2464 63.7778 37.5073 62.8413 39.1743 61.1743C40.8413 59.5073 41.7778 57.2464 41.7778 54.8889C41.7778 52.5314 40.8413 50.2705 39.1743 48.6035C37.5073 46.9365 35.2464 46 32.8889 46H24V81.5556M86.2222 77.1111C86.2222 78.2899 86.6905 79.4203 87.524 80.2538C88.3575 81.0873 89.4879 81.5556 90.6667 81.5556H99.5556C100.734 81.5556 101.865 81.0873 102.698 80.2538C103.532 79.4203 104 78.2899 104 77.1111V68.2222C104 67.0435 103.532 65.913 102.698 65.0795C101.865 64.246 100.734 63.7778 99.5556 63.7778H90.6667C89.4879 63.7778 88.3575 63.3095 87.524 62.476C86.6905 61.6425 86.2222 60.5121 86.2222 59.3333V50.4444C86.2222 49.2657 86.6905 48.1352 87.524 47.3017C88.3575 46.4683 89.4879 46 90.6667 46H99.5556C100.734 46 101.865 46.4683 102.698 47.3017C103.532 48.1352 104 49.2657 104 50.4444M64 46C66.3575 46 68.6184 46.9365 70.2854 48.6035C71.9524 50.2705 72.8889 52.5314 72.8889 54.8889V72.6667C72.8889 75.0241 71.9524 77.2851 70.2854 78.9521C68.6184 80.6191 66.3575 81.5556 64 81.5556C61.6425 81.5556 59.3816 80.6191 57.7146 78.9521C56.0476 77.2851 55.1111 75.0241 55.1111 72.6667V54.8889C55.1111 52.5314 56.0476 50.2705 57.7146 48.6035C59.3816 46.9365 61.6425 46 64 46Z" stroke="#2BDD66" stroke-width="8.88889" stroke-linecap="round" stroke-linejoin="round"/>
</svg>
