<svg width="128" height="128" viewBox="0 0 128 128" fill="none" xmlns="http://www.w3.org/2000/svg">
<path d="M24 63.7778H32.8889C35.2464 63.7778 37.5073 62.8413 39.1743 61.1743C40.8413 59.5073 41.7778 57.2464 41.7778 54.8889C41.7778 52.5314 40.8413 50.2705 39.1743 48.6035C37.5073 46.9365 35.2464 46 32.8889 46H24V81.5556M86.2222 46H104M95.1111 46V81.5556M55.1111 46V72.6667C55.1111 75.0241 56.0476 77.2851 57.7146 78.9521C59.3816 80.6191 61.6425 81.5556 64 81.5556C66.3575 81.5556 68.6184 80.6191 70.2854 78.9521C71.9524 77.2851 72.8889 75.0241 72.8889 72.6667V46" stroke="#FC8C0C" stroke-width="8.88889" stroke-linecap="round" stroke-linejoin="round"/>
</svg>
