<svg width="128" height="128" viewBox="0 0 128 128" fill="none" xmlns="http://www.w3.org/2000/svg">
<path d="M24 64C24 69.2529 25.0346 74.4543 27.0448 79.3073C29.055 84.1604 32.0014 88.5699 35.7157 92.2843C39.4301 95.9986 43.8396 98.945 48.6927 100.955C53.5457 102.965 58.7471 104 64 104C69.2529 104 74.4543 102.965 79.3073 100.955C84.1604 98.945 88.5699 95.9986 92.2843 92.2843C95.9986 88.5699 98.945 84.1604 100.955 79.3073C102.965 74.4543 104 69.2529 104 64C104 58.7471 102.965 53.5457 100.955 48.6927C98.945 43.8396 95.9986 39.4301 92.2843 35.7157C88.5699 32.0014 84.1604 29.055 79.3073 27.0448C74.4543 25.0346 69.2529 24 64 24C58.7471 24 53.5457 25.0346 48.6927 27.0448C43.8396 29.055 39.4301 32.0014 35.7157 35.7157C32.0014 39.4301 29.055 43.8396 27.0448 48.6927C25.0346 53.5457 24 58.7471 24 64Z" stroke="#2BDDAE" stroke-width="8.88889" stroke-linecap="round" stroke-linejoin="round"/>
<path d="M59.5556 59.5556H64L77.3333 41.7778L59.5556 59.5556Z" stroke="#2BDDAE" stroke-width="8.88889" stroke-linecap="round" stroke-linejoin="round"/>
<path d="M64 68.4444H68.4444L50.6667 86.2222L64 68.4444Z" stroke="#2BDDAE" stroke-width="8.88889" stroke-linecap="round" stroke-linejoin="round"/>
</svg>
