<svg width="128" height="128" viewBox="0 0 128 128" fill="none" xmlns="http://www.w3.org/2000/svg">
<path d="M90.6667 63.9999C94.2029 63.9999 97.5943 62.5951 100.095 60.0947C102.595 57.5942 104 54.2028 104 50.6666V41.7777C104 38.2414 102.595 34.8501 100.095 32.3496C97.5943 29.8491 94.2029 28.4443 90.6667 28.4443H37.3333C33.7971 28.4443 30.4057 29.8491 27.9052 32.3496C25.4048 34.8501 24 38.2414 24 41.7777V50.6666C24 54.2028 25.4048 57.5942 27.9052 60.0947C30.4057 62.5951 33.7971 63.9999 37.3333 63.9999M90.6667 63.9999H37.3333M90.6667 63.9999C94.2029 63.9999 97.5943 65.4046 100.095 67.9051C102.595 70.4056 104 73.797 104 77.3332V86.2221C104 89.7583 102.595 93.1497 100.095 95.6502C97.5943 98.1507 94.2029 99.5555 90.6667 99.5555H37.3333C33.7971 99.5555 30.4057 98.1507 27.9052 95.6502C25.4048 93.1497 24 89.7583 24 86.2221V77.3332C24 73.797 25.4048 70.4056 27.9052 67.9051C30.4057 65.4046 33.7971 63.9999 37.3333 63.9999M41.7778 46.2221V46.2666M41.7778 81.7777V81.8221" stroke="#0969FF" stroke-width="8.88889" stroke-linecap="round" stroke-linejoin="round"/>
</svg>
