<svg width="128" height="128" viewBox="0 0 128 128" fill="none" xmlns="http://www.w3.org/2000/svg">
<g clip-path="url(#clip0_1397_291)">
<rect width="128" height="128" rx="20" fill="#6BD731" fill-opacity="0.2"/>
<path d="M24 104L35.1111 92.8889M92.8889 35.1111L104 24M55.1111 59.5556L46.2222 68.4444M68.4444 72.8889L59.5556 81.7778M41.7797 64L64.0019 86.2222L57.3352 92.8889C55.8848 94.3871 54.1508 95.5818 52.2341 96.4032C50.3174 97.2246 48.2565 97.6563 46.1713 97.6732C44.0861 97.6902 42.0183 97.2919 40.0886 96.5018C38.1588 95.7116 36.4056 94.5453 34.9311 93.0708C33.4566 91.5963 32.2903 89.8431 31.5001 87.9133C30.7099 85.9835 30.3117 83.9158 30.3286 81.8306C30.3456 79.7454 30.7773 77.6844 31.5987 75.7678C32.4201 73.8511 33.6147 72.117 35.113 70.6667L41.7797 64ZM86.2222 64.0003L64 41.778L70.6667 35.1114C72.117 33.6131 73.8511 32.4185 75.7678 31.5971C77.6844 30.7757 79.7454 30.3439 81.8306 30.327C83.9158 30.3101 85.9835 30.7083 87.9133 31.4985C89.8431 32.2887 91.5963 33.455 93.0708 34.9295C94.5453 36.404 95.7116 38.1572 96.5018 40.087C97.2919 42.0167 97.6902 44.0844 97.6732 46.1696C97.6563 48.2548 97.2246 50.3158 96.4032 52.2325C95.5818 54.1492 94.3871 55.8832 92.8889 57.3336L86.2222 64.0003Z" stroke="#6BD731" stroke-width="8.88889" stroke-linecap="round" stroke-linejoin="round"/>
</g>
<defs>
<clipPath id="clip0_1397_291">
<rect width="128" height="128" fill="white"/>
</clipPath>
</defs>
</svg>
